# MagicaVoxel @ Ephtracy

# group
o 

# material
mtllib blockFourSides.mtl
usemtl palette

# normals
vn -1 0 0
vn 1 0 0
vn 0 0 1
vn 0 0 -1
vn 0 -1 0
vn 0 1 0

# texcoords
vt 0.560547 0.5
vt 0.978516 0.5

# verts
v -0.4 0 0.4
v -0.4 0 0.1
v -0.4 0 0
v -0.4 0 -0.3
v -0.4 0.3 0.4
v -0.4 0.3 0.1
v -0.4 0.3 0
v -0.4 0.3 -0.3
v -0.4 0.4 0.4
v -0.4 0.4 0.1
v -0.4 0.4 0
v -0.4 0.4 -0.3
v -0.4 0.7 0.4
v -0.4 0.7 0.1
v -0.4 0.7 0
v -0.4 0.7 -0.3
v -0.3 0.1 0.1
v -0.3 0.1 0
v -0.3 0.3 0.3
v -0.3 0.3 0.1
v -0.3 0.3 0
v -0.3 0.3 -0.2
v -0.3 0.4 0.3
v -0.3 0.4 0.1
v -0.3 0.4 0
v -0.3 0.4 -0.2
v -0.3 0.6 0.1
v -0.3 0.6 0
v -0.1 0.3 0.4
v -0.1 0.3 0.3
v -0.1 0.3 -0.2
v -0.1 0.3 -0.3
v -0.1 0.4 0.4
v -0.1 0.4 0.3
v -0.1 0.4 -0.2
v -0.1 0.4 -0.3
v 0 0 0.4
v 0 0 0.1
v 0 0 0
v 0 0 -0.3
v 0 0.1 0.4
v 0 0.1 0.1
v 0 0.1 0
v 0 0.1 -0.3
v 0 0.6 0.4
v 0 0.6 0.1
v 0 0.6 0
v 0 0.6 -0.3
v 0 0.7 0.4
v 0 0.7 0.1
v 0 0.7 0
v 0 0.7 -0.3
v -0.1 0 0.4
v -0.1 0 0.1
v -0.1 0 0
v -0.1 0 -0.3
v -0.1 0.1 0.4
v -0.1 0.1 0.1
v -0.1 0.1 0
v -0.1 0.1 -0.3
v -0.1 0.6 0.4
v -0.1 0.6 0.1
v -0.1 0.6 0
v -0.1 0.6 -0.3
v -0.1 0.7 0.4
v -0.1 0.7 0.1
v -0.1 0.7 0
v -0.1 0.7 -0.3
v 0 0.3 0.4
v 0 0.3 0.3
v 0 0.3 -0.2
v 0 0.3 -0.3
v 0 0.4 0.4
v 0 0.4 0.3
v 0 0.4 -0.2
v 0 0.4 -0.3
v 0.2 0.3 0.3
v 0.2 0.3 0.1
v 0.2 0.3 0
v 0.2 0.3 -0.2
v 0.2 0.4 0.3
v 0.2 0.4 0.1
v 0.2 0.4 0
v 0.2 0.4 -0.2
v 0.3 0 0.4
v 0.3 0 0.1
v 0.3 0 0
v 0.3 0 -0.3
v 0.3 0.1 0.1
v 0.3 0.1 0
v 0.3 0.3 0.4
v 0.3 0.3 0.1
v 0.3 0.3 0
v 0.3 0.3 -0.3
v 0.3 0.4 0.4
v 0.3 0.4 0.1
v 0.3 0.4 0
v 0.3 0.4 -0.3
v 0.3 0.6 0.1
v 0.3 0.6 0
v 0.3 0.7 0.4
v 0.3 0.7 0.1
v 0.3 0.7 0
v 0.3 0.7 -0.3
v -0.4 0 0.4
v -0.4 0.3 0.4
v -0.4 0.4 0.4
v -0.4 0.7 0.4
v -0.1 0 0.4
v -0.1 0.1 0.4
v -0.1 0.3 0.4
v -0.1 0.4 0.4
v -0.1 0.6 0.4
v -0.1 0.7 0.4
v 0 0 0.4
v 0 0.1 0.4
v 0 0.3 0.4
v 0 0.4 0.4
v 0 0.6 0.4
v 0 0.7 0.4
v 0.3 0 0.4
v 0.3 0.3 0.4
v 0.3 0.4 0.4
v 0.3 0.7 0.4
v -0.3 0.3 0.3
v -0.3 0.4 0.3
v -0.1 0.3 0.3
v -0.1 0.4 0.3
v 0 0.3 0.3
v 0 0.4 0.3
v 0.2 0.3 0.3
v 0.2 0.4 0.3
v 0.2 0.3 0.1
v 0.2 0.4 0.1
v 0.3 0.3 0.1
v 0.3 0.4 0.1
v -0.4 0 0
v -0.4 0.3 0
v -0.4 0.4 0
v -0.4 0.7 0
v -0.3 0.1 0
v -0.3 0.3 0
v -0.3 0.4 0
v -0.3 0.6 0
v -0.1 0 0
v -0.1 0.1 0
v -0.1 0.6 0
v -0.1 0.7 0
v 0 0 0
v 0 0.1 0
v 0 0.6 0
v 0 0.7 0
v 0.3 0 0
v 0.3 0.1 0
v 0.3 0.6 0
v 0.3 0.7 0
v -0.4 0 0.1
v -0.4 0.3 0.1
v -0.4 0.4 0.1
v -0.4 0.7 0.1
v -0.3 0.1 0.1
v -0.3 0.3 0.1
v -0.3 0.4 0.1
v -0.3 0.6 0.1
v -0.1 0 0.1
v -0.1 0.1 0.1
v -0.1 0.6 0.1
v -0.1 0.7 0.1
v 0 0 0.1
v 0 0.1 0.1
v 0 0.6 0.1
v 0 0.7 0.1
v 0.3 0 0.1
v 0.3 0.1 0.1
v 0.3 0.6 0.1
v 0.3 0.7 0.1
v 0.2 0.3 0
v 0.2 0.4 0
v 0.3 0.3 0
v 0.3 0.4 0
v -0.3 0.3 -0.2
v -0.3 0.4 -0.2
v -0.1 0.3 -0.2
v -0.1 0.4 -0.2
v 0 0.3 -0.2
v 0 0.4 -0.2
v 0.2 0.3 -0.2
v 0.2 0.4 -0.2
v -0.4 0 -0.3
v -0.4 0.3 -0.3
v -0.4 0.4 -0.3
v -0.4 0.7 -0.3
v -0.1 0 -0.3
v -0.1 0.1 -0.3
v -0.1 0.3 -0.3
v -0.1 0.4 -0.3
v -0.1 0.6 -0.3
v -0.1 0.7 -0.3
v 0 0 -0.3
v 0 0.1 -0.3
v 0 0.3 -0.3
v 0 0.4 -0.3
v 0 0.6 -0.3
v 0 0.7 -0.3
v 0.3 0 -0.3
v 0.3 0.3 -0.3
v 0.3 0.4 -0.3
v 0.3 0.7 -0.3
v -0.4 0 0.4
v -0.1 0 0.4
v 0 0 0.4
v 0.3 0 0.4
v -0.4 0 0.1
v -0.1 0 0.1
v 0 0 0.1
v 0.3 0 0.1
v -0.4 0 0
v -0.1 0 0
v 0 0 0
v 0.3 0 0
v -0.4 0 -0.3
v -0.1 0 -0.3
v 0 0 -0.3
v 0.3 0 -0.3
v -0.1 0.1 0.4
v 0 0.1 0.4
v -0.3 0.1 0.1
v -0.1 0.1 0.1
v 0 0.1 0.1
v 0.3 0.1 0.1
v -0.3 0.1 0
v -0.1 0.1 0
v 0 0.1 0
v 0.3 0.1 0
v -0.1 0.1 -0.3
v 0 0.1 -0.3
v -0.4 0.4 0.4
v -0.1 0.4 0.4
v 0 0.4 0.4
v 0.3 0.4 0.4
v -0.3 0.4 0.3
v -0.1 0.4 0.3
v 0 0.4 0.3
v 0.2 0.4 0.3
v -0.4 0.4 0.1
v -0.3 0.4 0.1
v 0.2 0.4 0.1
v 0.3 0.4 0.1
v -0.4 0.4 0
v -0.3 0.4 0
v 0.2 0.4 0
v 0.3 0.4 0
v -0.3 0.4 -0.2
v -0.1 0.4 -0.2
v 0 0.4 -0.2
v 0.2 0.4 -0.2
v -0.4 0.4 -0.3
v -0.1 0.4 -0.3
v 0 0.4 -0.3
v 0.3 0.4 -0.3
v -0.4 0.3 0.4
v -0.1 0.3 0.4
v 0 0.3 0.4
v 0.3 0.3 0.4
v -0.3 0.3 0.3
v -0.1 0.3 0.3
v 0 0.3 0.3
v 0.2 0.3 0.3
v -0.4 0.3 0.1
v -0.3 0.3 0.1
v 0.2 0.3 0.1
v 0.3 0.3 0.1
v -0.4 0.3 0
v -0.3 0.3 0
v 0.2 0.3 0
v 0.3 0.3 0
v -0.3 0.3 -0.2
v -0.1 0.3 -0.2
v 0 0.3 -0.2
v 0.2 0.3 -0.2
v -0.4 0.3 -0.3
v -0.1 0.3 -0.3
v 0 0.3 -0.3
v 0.3 0.3 -0.3
v -0.1 0.6 0.4
v 0 0.6 0.4
v -0.3 0.6 0.1
v -0.1 0.6 0.1
v 0 0.6 0.1
v 0.3 0.6 0.1
v -0.3 0.6 0
v -0.1 0.6 0
v 0 0.6 0
v 0.3 0.6 0
v -0.1 0.6 -0.3
v 0 0.6 -0.3
v -0.4 0.7 0.4
v -0.1 0.7 0.4
v 0 0.7 0.4
v 0.3 0.7 0.4
v -0.4 0.7 0.1
v -0.1 0.7 0.1
v 0 0.7 0.1
v 0.3 0.7 0.1
v -0.4 0.7 0
v -0.1 0.7 0
v 0 0.7 0
v 0.3 0.7 0
v -0.4 0.7 -0.3
v -0.1 0.7 -0.3
v 0 0.7 -0.3
v 0.3 0.7 -0.3

# faces
f 5/1/1 2/1/1 1/1/1
f 6/1/1 2/1/1 5/1/1
f 7/1/1 4/1/1 3/1/1
f 8/1/1 4/1/1 7/1/1
f 13/1/1 10/1/1 9/1/1
f 14/1/1 10/1/1 13/1/1
f 15/1/1 12/1/1 11/1/1
f 16/1/1 12/1/1 15/1/1
f 20/2/1 18/2/1 17/2/1
f 21/2/1 18/2/1 20/2/1
f 23/2/1 20/2/1 19/2/1
f 23/2/1 22/2/1 21/2/1
f 23/2/1 21/2/1 20/2/1
f 24/2/1 22/2/1 23/2/1
f 25/2/1 22/2/1 24/2/1
f 26/2/1 22/2/1 25/2/1
f 27/2/1 25/2/1 24/2/1
f 28/2/1 25/2/1 27/2/1
f 33/2/1 30/2/1 29/2/1
f 34/2/1 30/2/1 33/2/1
f 35/2/1 32/2/1 31/2/1
f 36/2/1 32/2/1 35/2/1
f 41/1/1 38/1/1 37/1/1
f 42/1/1 38/1/1 41/1/1
f 43/1/1 40/1/1 39/1/1
f 44/1/1 40/1/1 43/1/1
f 49/1/1 46/1/1 45/1/1
f 50/1/1 46/1/1 49/1/1
f 51/1/1 48/1/1 47/1/1
f 52/1/1 48/1/1 51/1/1
f 53/1/2 54/1/2 57/1/2
f 57/1/2 54/1/2 58/1/2
f 55/1/2 56/1/2 59/1/2
f 59/1/2 56/1/2 60/1/2
f 61/1/2 62/1/2 65/1/2
f 65/1/2 62/1/2 66/1/2
f 63/1/2 64/1/2 67/1/2
f 67/1/2 64/1/2 68/1/2
f 69/2/2 70/2/2 73/2/2
f 73/2/2 70/2/2 74/2/2
f 71/2/2 72/2/2 75/2/2
f 75/2/2 72/2/2 76/2/2
f 77/2/2 78/2/2 81/2/2
f 81/2/2 78/2/2 82/2/2
f 79/2/2 80/2/2 83/2/2
f 83/2/2 80/2/2 84/2/2
f 85/1/2 86/1/2 89/1/2
f 87/1/2 88/1/2 90/1/2
f 85/1/2 89/1/2 91/1/2
f 89/2/2 90/2/2 92/2/2
f 91/1/2 89/1/2 92/1/2
f 90/1/2 88/1/2 93/1/2
f 92/2/2 90/2/2 93/2/2
f 93/1/2 88/1/2 94/1/2
f 92/2/2 93/2/2 96/2/2
f 96/2/2 93/2/2 97/2/2
f 95/1/2 96/1/2 99/1/2
f 96/2/2 97/2/2 99/2/2
f 97/1/2 98/1/2 100/1/2
f 99/2/2 97/2/2 100/2/2
f 95/1/2 99/1/2 101/1/2
f 101/1/2 99/1/2 102/1/2
f 100/1/2 98/1/2 103/1/2
f 103/1/2 98/1/2 104/1/2
f 109/1/3 106/1/3 105/1/3
f 110/1/3 106/1/3 109/1/3
f 111/1/3 106/1/3 110/1/3
f 112/1/3 108/1/3 107/1/3
f 113/1/3 108/1/3 112/1/3
f 114/1/3 108/1/3 113/1/3
f 116/2/3 111/2/3 110/2/3
f 116/2/3 113/2/3 112/2/3
f 116/2/3 112/2/3 111/2/3
f 117/2/3 113/2/3 116/2/3
f 118/2/3 113/2/3 117/2/3
f 119/2/3 113/2/3 118/2/3
f 121/1/3 116/1/3 115/1/3
f 121/1/3 117/1/3 116/1/3
f 122/1/3 117/1/3 121/1/3
f 123/1/3 120/1/3 119/1/3
f 123/1/3 119/1/3 118/1/3
f 124/1/3 120/1/3 123/1/3
f 127/2/3 126/2/3 125/2/3
f 128/2/3 126/2/3 127/2/3
f 131/2/3 130/2/3 129/2/3
f 132/2/3 130/2/3 131/2/3
f 135/2/3 134/2/3 133/2/3
f 136/2/3 134/2/3 135/2/3
f 141/1/3 138/1/3 137/1/3
f 142/1/3 138/1/3 141/1/3
f 143/1/3 140/1/3 139/1/3
f 144/1/3 140/1/3 143/1/3
f 145/1/3 141/1/3 137/1/3
f 146/1/3 141/1/3 145/1/3
f 147/1/3 140/1/3 144/1/3
f 148/1/3 140/1/3 147/1/3
f 153/1/3 150/1/3 149/1/3
f 154/1/3 150/1/3 153/1/3
f 155/1/3 152/1/3 151/1/3
f 156/1/3 152/1/3 155/1/3
f 157/1/4 158/1/4 161/1/4
f 161/1/4 158/1/4 162/1/4
f 159/1/4 160/1/4 163/1/4
f 163/1/4 160/1/4 164/1/4
f 157/1/4 161/1/4 165/1/4
f 165/1/4 161/1/4 166/1/4
f 164/1/4 160/1/4 167/1/4
f 167/1/4 160/1/4 168/1/4
f 169/1/4 170/1/4 173/1/4
f 173/1/4 170/1/4 174/1/4
f 171/1/4 172/1/4 175/1/4
f 175/1/4 172/1/4 176/1/4
f 177/2/4 178/2/4 179/2/4
f 179/2/4 178/2/4 180/2/4
f 181/2/4 182/2/4 183/2/4
f 183/2/4 182/2/4 184/2/4
f 185/2/4 186/2/4 187/2/4
f 187/2/4 186/2/4 188/2/4
f 189/1/4 190/1/4 193/1/4
f 193/1/4 190/1/4 194/1/4
f 194/1/4 190/1/4 195/1/4
f 191/1/4 192/1/4 196/1/4
f 196/1/4 192/1/4 197/1/4
f 197/1/4 192/1/4 198/1/4
f 194/2/4 195/2/4 200/2/4
f 196/2/4 197/2/4 200/2/4
f 195/2/4 196/2/4 200/2/4
f 200/2/4 197/2/4 201/2/4
f 201/2/4 197/2/4 202/2/4
f 202/2/4 197/2/4 203/2/4
f 199/1/4 200/1/4 205/1/4
f 200/1/4 201/1/4 205/1/4
f 205/1/4 201/1/4 206/1/4
f 203/1/4 204/1/4 207/1/4
f 202/1/4 203/1/4 207/1/4
f 207/1/4 204/1/4 208/1/4
f 213/1/5 210/1/5 209/1/5
f 214/1/5 210/1/5 213/1/5
f 215/1/5 212/1/5 211/1/5
f 216/1/5 212/1/5 215/1/5
f 221/1/5 218/1/5 217/1/5
f 222/1/5 218/1/5 221/1/5
f 223/1/5 220/1/5 219/1/5
f 224/1/5 220/1/5 223/1/5
f 228/2/5 226/2/5 225/2/5
f 229/2/5 226/2/5 228/2/5
f 231/2/5 228/2/5 227/2/5
f 231/2/5 230/2/5 229/2/5
f 231/2/5 229/2/5 228/2/5
f 232/2/5 230/2/5 231/2/5
f 233/2/5 230/2/5 232/2/5
f 234/2/5 230/2/5 233/2/5
f 235/2/5 233/2/5 232/2/5
f 236/2/5 233/2/5 235/2/5
f 241/1/5 238/1/5 237/1/5
f 242/1/5 238/1/5 241/1/5
f 243/1/5 240/1/5 239/1/5
f 244/1/5 240/1/5 243/1/5
f 245/1/5 241/1/5 237/1/5
f 246/1/5 241/1/5 245/1/5
f 247/1/5 240/1/5 244/1/5
f 248/1/5 240/1/5 247/1/5
f 253/1/5 250/1/5 249/1/5
f 256/1/5 252/1/5 251/1/5
f 257/1/5 254/1/5 253/1/5
f 257/1/5 253/1/5 249/1/5
f 258/1/5 254/1/5 257/1/5
f 259/1/5 256/1/5 255/1/5
f 260/1/5 252/1/5 256/1/5
f 260/1/5 256/1/5 259/1/5
f 261/1/6 262/1/6 265/1/6
f 265/1/6 262/1/6 266/1/6
f 263/1/6 264/1/6 267/1/6
f 267/1/6 264/1/6 268/1/6
f 261/1/6 265/1/6 269/1/6
f 269/1/6 265/1/6 270/1/6
f 268/1/6 264/1/6 271/1/6
f 271/1/6 264/1/6 272/1/6
f 273/1/6 274/1/6 277/1/6
f 275/1/6 276/1/6 280/1/6
f 277/1/6 278/1/6 281/1/6
f 273/1/6 277/1/6 281/1/6
f 281/1/6 278/1/6 282/1/6
f 279/1/6 280/1/6 283/1/6
f 280/1/6 276/1/6 284/1/6
f 283/1/6 280/1/6 284/1/6
f 285/2/6 286/2/6 288/2/6
f 288/2/6 286/2/6 289/2/6
f 287/2/6 288/2/6 291/2/6
f 289/2/6 290/2/6 291/2/6
f 288/2/6 289/2/6 291/2/6
f 291/2/6 290/2/6 292/2/6
f 292/2/6 290/2/6 293/2/6
f 293/2/6 290/2/6 294/2/6
f 292/2/6 293/2/6 295/2/6
f 295/2/6 293/2/6 296/2/6
f 297/1/6 298/1/6 301/1/6
f 301/1/6 298/1/6 302/1/6
f 299/1/6 300/1/6 303/1/6
f 303/1/6 300/1/6 304/1/6
f 305/1/6 306/1/6 309/1/6
f 309/1/6 306/1/6 310/1/6
f 307/1/6 308/1/6 311/1/6
f 311/1/6 308/1/6 312/1/6
